<svg xmlns="http://www.w3.org/2000/svg" viewBox="0 0 1728.72 384.38"><defs><style>.cls-1{font-size:258.84px;font-family:nevis-Bold, nevis;font-weight:700;}</style></defs><title>Asset 4</title><g id="Layer_2" data-name="Layer 2"><g id="Layer_2-2" data-name="Layer 2"><g id="Layer_2-2-2" data-name="Layer 2-2"><g id="layer1"><path id="path5334" d="M292,53.63a23.26,23.26,0,0,1-10-3.94,33.94,33.94,0,0,1-6.88-6.82,28.25,28.25,0,0,1-5.24-18.7A26.46,26.46,0,0,1,277.57,8a24.84,24.84,0,0,1,6.63-4.82,14.23,14.23,0,0,1,5.65-1.75c1.21-.18,2.66-.44,3.19-.59a10.56,10.56,0,0,1,4.44-.22c11.26,1.08,20.33,7.7,23.89,17.36a26.65,26.65,0,0,1-.05,17.76c-2.73,8.19-8,13.33-16.39,16.18a30.85,30.85,0,0,1-13,1.77Zm7.59-10.31a16.42,16.42,0,0,0,7.71-4.25,15.16,15.16,0,0,0,3.44-4.8,17.79,17.79,0,0,0,1.06-12.33,14.7,14.7,0,0,0-3.83-6.66,16.46,16.46,0,0,0-11-4.84,10.25,10.25,0,0,0-4,.3,22,22,0,0,0-3,.81,17.41,17.41,0,0,0-4.61,3.32,15.86,15.86,0,0,0-4.61,11.05,16.79,16.79,0,0,0,.87,6.78c1.89,5.69,6,9.7,11.24,10.89a18.41,18.41,0,0,0,6.66-.25Zm-60.44,10c-4.75-.74-7.75-2-12.69-5.46-2.06-1.48-2.7-2-2.7-2.22s1-1.35,3.4-3.63l3.4-3.29.91.9c.83.82,1.1,1,3.17,1.72,8.63,3.15,14.15,2.91,16.48-.74a5.56,5.56,0,0,0,.9-3.76c-.23-2.7-1.92-4.39-5.18-5.18-.68-.17-2.58-.51-4.2-.74-5.4-.79-10.16-2.53-12.77-4.62C226.53,23.7,224.76,17.52,226,13a15.88,15.88,0,0,1,6.49-8.82c2-1.43,3.35-2,6.88-2.92L242.59.4l2.58.09c5.32.22,9.47,1.2,12.72,3a17,17,0,0,1,4,3.21l.62.72-3.34,3.39c-1.83,1.86-3.4,3.42-3.47,3.45a3.47,3.47,0,0,1-1-.81A5.23,5.23,0,0,0,252.22,12a22.36,22.36,0,0,0-9.51-1.43,7.63,7.63,0,0,0-4.16,2,5,5,0,0,0-1.38,3.54c-.06,1.35,0,1.41.51,2.22,1.09,1.63,2.72,2.28,7.84,3.12,6.85,1.13,11.38,3.21,14.8,6.78a11,11,0,0,1,3.35,8.84,16.12,16.12,0,0,1-4.87,10.8,20.85,20.85,0,0,1-11.54,5.51,34.72,34.72,0,0,1-8.15,0ZM351,53.6a26.33,26.33,0,0,1-20.65-15.4,27.44,27.44,0,0,1,.35-23.2A26.5,26.5,0,0,1,344.31,2.32,54,54,0,0,1,353.92.54a31.5,31.5,0,0,1,12.37,2.53c3.32,1.51,7.4,4.16,7.23,4.64s-6.78,7.4-7,7.4a20.26,20.26,0,0,1-2.64-1.31c-4.2-2.29-5.66-2.71-9.51-2.68a15.51,15.51,0,0,0-6.88,1.36,17,17,0,0,0-7.15,6.19,13.86,13.86,0,0,0-1.92,8.27,18.45,18.45,0,0,0,4.79,11.91c3,3.23,6.57,4.61,11.38,4.4a16.91,16.91,0,0,0,9-2.72c.72-.4,1.46-.77,2.22-1.1l.95-.41,2.88,2.91c2.12,2.14,3,3.15,3.34,3.81a2.52,2.52,0,0,1,.34,1,50.15,50.15,0,0,1-6.17,3.91,26.67,26.67,0,0,1-8.05,2.71A44.4,44.4,0,0,1,351,53.6ZM69.84,53.35,69,53.29V35.83c.26-9.6,1-26.43,1-26.43V0H72.5L88.83,17c9,9.09,16.44,16.51,16.6,16.51s.23-1,.23-5.85c0-3.22,0-10.66.29-16.54V1h10V54h-3.83L100.24,41.87C90,31.36,85.44,26.56,84.2,25a22.93,22.93,0,0,0-3.64-3.18L80,21.46V54H75.16s-4.83-.61-5.28-.64ZM127,25.9V0h9.8c5.41.53,19.33,0,19.33,0H166V10H138V21h5.86a70.59,70.59,0,0,0,10.57,1H159v9H138V43h28V53H127Zm65,27.46-1.44-.06L191,31.84V10.28L182.1,11H173L173,5.7c0-2.54.11-4.66.16-4.7s10.35,0,22.93,0L219,1.1V9.88s-4.06.08-9,.12h-9.61L201,31.85V53h-4.06s-4.73.43-4.94.39ZM1.3,53a2,2,0,0,1-.82-.22c-.47-.26-.59-.74-.37-1.51,0-.15.46-1.37.93-2.7s.94-2.66,1-2.95c.3-1,.51-1.32,1-1.52L3.29,44H29.8c24.36,0,26.52,0,26.72.06.42.11.54.24.82.8a21.34,21.34,0,0,1,.91,2.58A17.38,17.38,0,0,0,59,49.57a10,10,0,0,1,.77,2.4c0,.48-.4.81-1.08,1-.27,0-2.59,0-28,.07H1.3Zm54.27-2a1.69,1.69,0,0,0,.72-.23.8.8,0,0,0,.29-.51c0-.05-.34-1-.74-2.11L55,45.75c-.19-.66-.43-1-.74-1.11a6.11,6.11,0,0,0-1.48-.09c-.4,0-11.21,0-24,.05-22.36,0-23.29,0-23.39.08a2.81,2.81,0,0,0-.56.8,17.57,17.57,0,0,0-.91,2.35c-.2.63-.45,1.35-.54,1.59-.27.74-.29,1-.08,1.25A1.38,1.38,0,0,0,4.2,51H55.58ZM15,44a1.78,1.78,0,0,1-.55-.18c-.11-.07-.11-.08-.11-.18a8.74,8.74,0,0,1,1.24-2.48l.09-.11h6.71l.11-.06c.51-.32.63-1.42.51-4.11V36H14.82c-7.54,0-8.18,0-8.51,0a2.86,2.86,0,0,1-1.49-.58A3.62,3.62,0,0,1,4,33.16c0-.29,0-.82,0-2.13V6.16a16.38,16.38,0,0,1,.13-3,2.21,2.21,0,0,1,.63-1.46,2.83,2.83,0,0,1,1.68-.67c.27,0,4.6,0,23.52-.06h23.5a2.59,2.59,0,0,1,1.06.26,2,2,0,0,1,.62.47,2.16,2.16,0,0,1,.61,1c0,.19,0,1,.08,14,0,7.59,0,14.12,0,14.51.1,2.62-.25,3.85-1.27,4.45a3.42,3.42,0,0,1-.94.29,20.19,20.19,0,0,1-2.46,0c-.68,0-14.58,0-14.65,0s-.08.19-.1,2.14a12.64,12.64,0,0,0,.05,2,1.17,1.17,0,0,0,.61.85,26.47,26.47,0,0,0,4.27.05c1.81,0,1.92,0,2.1.14a9.84,9.84,0,0,1,1.08,2.18c.09.26.09.29,0,.36a.43.43,0,0,1-.2.15l-.15.08H15Zm15.9-5.7c4.09,0,4,0,4.26-.17a1,1,0,0,0,.44-1c-.07-.29-.37-.47-.87-1.07H25.51l-.2.73a1.07,1.07,0,0,0-.35.82.49.49,0,0,0,.09.39c.19.21.45.35.74.06h.7c.26.32,2.22.32,4.36.28ZM12,32v-.36l.2.05a.65.65,0,0,1-.51,0s0-.2.23-.3a2.11,2.11,0,0,1,.74-.14,7,7,0,0,1,.34.93V32h2.3l0,1a3.2,3.2,0,0,1-.07-1.41,1.6,1.6,0,0,1,.35-.81.89.89,0,0,1,.8-.19c.37.1.6.43.75,1a3.26,3.26,0,0,1,0,1.32C17,33,17,33.1,17,33h4.35a30.28,30.28,0,0,0,4.26,0,.15.15,0,0,1,0-.13c0-.1.36-.25.69-.29s.36,0,.68.24V33h2v-.12a4.4,4.4,0,0,0,.55-.79.65.65,0,0,1,.72-.22c.41.2.73,1.08.73,1.08V32H39.7c.12,1,.23,1,.35,1H40V30.71l.24,0a.66.66,0,0,1-.48,0s0-.21.22-.29a1.49,1.49,0,0,0,.74-.46H41v2h.14a3.58,3.58,0,0,0,.34,1H47v-.12l.36-.14a1.49,1.49,0,0,1-.51.06c-.08,0-.1-.19,0-.27a3,3,0,0,1,.78-.23c.22,0,.37.41.37.41V33h6V31.84l.11.05a.76.76,0,0,1-.47,0,.2.2,0,0,1,.06-.24l.4-.11.9-.09V6h-.68c-.18-.44-.4-.55-.64-.58a.19.19,0,0,1,0-.15c0-.15.39-.12.39-.27H54V2h-9l-.06,1.06a1.16,1.16,0,0,1-.43.57,1.17,1.17,0,0,1-.32.09.74.74,0,0,1-.85-.5,1.48,1.48,0,0,1-.12-.29A3.31,3.31,0,0,0,41.87,3h-.74c.12.92.24,1,.35,1a.24.24,0,0,1,0,.26,3.45,3.45,0,0,1-1.28.09c-.36,0-.46-.08-.48-.2s.39-.1.39-.1H41V3H30.51l.11.06a1.51,1.51,0,0,1,.35.73,2.67,2.67,0,0,1-.1,1.58,1,1,0,0,1-1.1.58c-.42-.12-.69-.62-.74-1.42A2.08,2.08,0,0,1,29.45,3l.13,1H17V3.26c.16.9-.13,1.33-.7,1.42S15,3.2,15,3.2V3H13V4h.11c.12.9.23.91.35,1a.2.2,0,0,1,0,.25,3.76,3.76,0,0,1-1.29.1c-.35,0-.45-.09-.47-.21s0-.18.39-.09H12V3H6V33h6V32Zm21.12.88a1.08,1.08,0,0,1-.53-.62,2.46,2.46,0,0,1-.15-1.11A1.47,1.47,0,0,1,33,29.77a.55.55,0,0,1,.4-.07.65.65,0,0,1,.41.11,1.89,1.89,0,0,1,.58,1.48,1.78,1.78,0,0,1-.4,1.25.89.89,0,0,1-.9.27Zm.5-.45a1.34,1.34,0,0,0,.36-1,3.06,3.06,0,0,0-.38-1.29.24.24,0,0,0-.21-.07.23.23,0,0,0-.22.1,1.77,1.77,0,0,0-.28,1.09,1.64,1.64,0,0,0,.36,1.15.35.35,0,0,0,.39,0Zm10.36.31a1.11,1.11,0,0,1-.64-.87,3.87,3.87,0,0,1,0-1.27,1.54,1.54,0,0,1,.35-.84.89.89,0,0,1,.8-.19c.36.1.58.4.74.94a2.58,2.58,0,0,1-.09,1.6A.94.94,0,0,1,44,32.7Zm.42-.41a1.09,1.09,0,0,0,.42-.9,1.76,1.76,0,0,0-.11-.94c-.1-.26-.34-.54-.45-.54s-.35.29-.43.51a2.17,2.17,0,0,0,.14,1.71.27.27,0,0,0,.42.13Zm-21.79.43a.76.76,0,0,1-.41-.34A2.29,2.29,0,0,1,21.86,31a1.39,1.39,0,0,1,.5-1.3.49.49,0,0,1,.43-.13c.5,0,.8.32,1,1a2.75,2.75,0,0,1,0,1.21,1.3,1.3,0,0,1-.57.87.91.91,0,0,1-.65,0ZM23.1,32a2.07,2.07,0,0,0,.24-1.29,2.8,2.8,0,0,0-.25-.84.83.83,0,0,0-.21-.06c-.21,0-.22,0-.38.32a2.08,2.08,0,0,0,0,1.76c.11.22.21.31.38.29s.14,0,.24-.18Zm-3.87-.35a1.08,1.08,0,0,1-.54-.59,2.58,2.58,0,0,1-.15-1.1,1.47,1.47,0,0,1,.61-1.37c.11-.08.15-.09.4-.08a.56.56,0,0,1,.41.11,1.92,1.92,0,0,1,.58,1.52,1.75,1.75,0,0,1-.4,1.24.88.88,0,0,1-.92.24Zm.72-.45a1.34,1.34,0,0,0,.35-1,2.86,2.86,0,0,0-.36-1.27.23.23,0,0,0-.21-.07.21.21,0,0,0-.22.11A1.79,1.79,0,0,0,19.2,30a1.69,1.69,0,0,0,.35,1.15.36.36,0,0,0,.4,0Zm30.67.45a.66.66,0,0,1-.41-.34,2.23,2.23,0,0,1-.27-1.41c0-.74.16-1,.54-1.29a.53.53,0,0,1,.41-.15c.51,0,.8.33,1,1a3,3,0,0,1,0,1.2,1.31,1.31,0,0,1-.59.87.87.87,0,0,1-.65.08Zm.54-.56a2.06,2.06,0,0,0,.26-1.33,2.29,2.29,0,0,0-.23-.84.83.83,0,0,0-.21-.06c-.2,0-.22,0-.37.32a2,2,0,0,0,0,1.77c.11.22.21.3.38.28s.14,0,.24-.18Zm-42.45.4a.7.7,0,0,1-.42-.33A2.32,2.32,0,0,1,8,29.74a1.34,1.34,0,0,1,.53-1.29A.56.56,0,0,1,9,28.32c.5,0,.8.32,1,1a2.75,2.75,0,0,1,0,1.21,1.25,1.25,0,0,1-.6.82.89.89,0,0,1-.66.08Zm.51-.6a2.08,2.08,0,0,0,.23-1.29,2.44,2.44,0,0,0-.23-.87A.47.47,0,0,0,9,28.64c-.2,0-.22,0-.37.31a2.11,2.11,0,0,0,0,1.77c.1.22.21.3.37.29s.15,0,.24-.19Zm16.75,0a1.21,1.21,0,0,1-.51-.84,3.26,3.26,0,0,1,0-1.39,1.1,1.1,0,0,1,.35-.65.72.72,0,0,1,.83-.2,1.57,1.57,0,0,1,.72,1.56,1.61,1.61,0,0,1-.7,1.52A.92.92,0,0,1,26,30.86Zm.57-.45a1.07,1.07,0,0,0,.31-.45,1.84,1.84,0,0,0,.06-.62,1.52,1.52,0,0,0-.06-.64,1.17,1.17,0,0,0-.39-.51c-.18-.11-.24-.08-.39.22A2,2,0,0,0,26,30.22c.15.33.29.38.54.2Zm20.93.95a.8.8,0,0,1-.27-.31A3,3,0,0,1,47,29.84V29l-.45.1a3.9,3.9,0,0,1-2.71.24,6,6,0,0,1-2.18-1.4L41,27.61v.16s.07.8-.39.84-.74-.28-.87-.9a3.23,3.23,0,0,1-.07-.69,1.82,1.82,0,0,1,.4-1.34l.16-.16-.32-.59c-.18-.33-.4-.74-.51-.89s-.27-.51-.39-.77A5.83,5.83,0,0,0,38.28,22c-.06-.06-.11-.09-.11-.06a2.65,2.65,0,0,1-.66,1l-.56.18V25h.52c.09.2.2.23.31.22s.27.13.22.27l0,.1q-.66,0-1.32,0c-.4,0-.4,0-.4-.21s.42.62.42.62H37V24.45a1.79,1.79,0,0,1-.22-.94l-.27.16a2.68,2.68,0,0,1-3.5-.43.2.2,0,0,0-.2-.09c-.18,0-.24,0-.24-.2a.16.16,0,0,1,0-.14s0-.08-.13-.31a4.22,4.22,0,0,1-.49-1V21H28v.32c-.1.23-.17.46-.27.68a3.46,3.46,0,0,1-.6.82l-.22.22.08.13a2.19,2.19,0,0,1,.29,1.39c-.1.85-.53,1.35-1.09,1.35s-.74-.28-.91-.89a6.61,6.61,0,0,0-.28-.74V24h-.14a4.09,4.09,0,0,1-1.21,0,4.24,4.24,0,0,1-1.53-.8,3.55,3.55,0,0,0-.31-.23,1.26,1.26,0,0,1-.47-.67,1,1,0,0,0-.14-.3c-.06-.05-.06,0-.14.19a5.88,5.88,0,0,1-.78,1.32,18.62,18.62,0,0,0-1.07,1.75l-.21.4V26h.89c.1.26.2.26.3.26.3,0,.41.15.26.3l-.64.44h-.4l-.16.27a6.6,6.6,0,0,1-1.77,1.95,3.23,3.23,0,0,1-2,.61,4.36,4.36,0,0,1-1.85-.39,1.19,1.19,0,0,0-.26-.11.31.31,0,0,0-.1.15,1,1,0,0,1-.86.58c-.45,0-.73-.29-.89-.93a3.32,3.32,0,0,1,0-1.47,2.12,2.12,0,0,1,.14-.4.31.31,0,0,0,0-.32,8.15,8.15,0,0,1-.14-1.21,4.9,4.9,0,0,1,.13-1,.58.58,0,0,0,0-.23,2.55,2.55,0,0,1-.21-1.09A1.81,1.81,0,0,1,11.73,22a.6.6,0,0,0,.24-.48,2.44,2.44,0,0,1,.12-.52c0-.14.12-.42.17-.62l.11-.37h-.16s-.39-.14-.56-.23a.21.21,0,0,1,0-.24c.12,0,.36-.53.36-.53H12V17h.22a.39.39,0,0,1-.48.19s0-.2.22-.3a2.12,2.12,0,0,1,.75-.14,3.62,3.62,0,0,0,.29.88v.88a1.48,1.48,0,0,1-.15-.86c.11-.75.25-1.49.43-2.23a2.75,2.75,0,0,0,.14-.8c0-.25-.06-.59-.07-.44a1.83,1.83,0,0,1-.32.58.82.82,0,0,1-1.15.11l-.07-.07a2,2,0,0,1-.33-1.31,2.3,2.3,0,0,1,.2-1.07,1.24,1.24,0,0,1,.51-.48.84.84,0,0,1,.75.11,1.86,1.86,0,0,1,.51,1c0,.09,0,.05.19-.36a6.73,6.73,0,0,1,2-3.09l.17-.12-.1-.06a2.52,2.52,0,0,1-.31-2.56.76.76,0,0,1,.44-.44.83.83,0,0,1,1.11.37.36.36,0,0,1,0,.09l.13.26s0,.06.09,0A2.35,2.35,0,0,1,18.89,7H20V5h-.33s-.34-.35-.51-.37-.09-.17,0-.26a3.13,3.13,0,0,1,.74-.21c.23,0,.22-.1.1,1.38V7h.29a3.54,3.54,0,0,1,1.49,0,3.56,3.56,0,0,1,1,.3l.21.1V6h-.27l-.29,1h-.27s0-1.17,0-1.4l.48-.15a1.17,1.17,0,0,1,.51-.09,5.88,5.88,0,0,1,.09,1.57c0,.87,0,.9.08,1a.19.19,0,0,0,.14.09l.24,0c.19,0,.24.12.19.25S23.68,8,23.68,8h-.1c.07.89.1,1.19.11,1.49,0,.13,0,.16.12.23a2.31,2.31,0,0,1,.55.53l.08-.25H26V8.78l.15.05a.74.74,0,0,1-.51,0c0-.05,0-.21.22-.3A1.14,1.14,0,0,0,26.55,8H27v2H29.3l-.09.21a3,3,0,0,1,0-2.07.76.76,0,0,1,.43-.43A1.11,1.11,0,0,1,31,8.1h0v0a3.87,3.87,0,0,1-.11,2.1l-.1.77h1.15a2.58,2.58,0,0,1,1.19-.62c.1,0,.3-.38.3-.38h2.19l.23.06L36,9.83v-.5c.08-.8.22-1.09.59-1.35a1.67,1.67,0,0,0,.28-.25,2.17,2.17,0,0,1,1.1-.67A7.55,7.55,0,0,1,39.62,7H40V6.49l.29,0c-.21,0-.43,0-.47,0s0-.21.21-.3.53-.11.74-.24H41V7h.52l.94.12a2.19,2.19,0,0,1,.63.45c.12.12.19.18.18.14a2.32,2.32,0,0,1,0-.46A2.42,2.42,0,0,1,43.39,6a.76.76,0,0,1,.44-.44A.9.9,0,0,1,45,6h0a2.66,2.66,0,0,1,.25,1.14c0,.92-.35,1.5-1,1.59a.78.78,0,0,1-.56-.13L44,8.51V8.6c-.27.22,0,.68,0,.68v.1l.28.13a3.11,3.11,0,0,1,.53.32,7.81,7.81,0,0,1,2,3.35l.18.51v0a4.53,4.53,0,0,0,0,1.47c0,.15.12.65.2,1.13a9.6,9.6,0,0,0,.35,1.59.37.37,0,0,0,.08.18l.24,0H48a4.74,4.74,0,0,1,0,1.16V21h.13c.09-.47.18-.47.26-.46.28,0,.37.17.24.33s-.09.06-.36.06h-.31c0,.17.23,2,.27,2.2a12.37,12.37,0,0,1,.21,1.62c0,.31.06.65.06.79s0,.18.07.2a.19.19,0,0,1,.09.24.13.13,0,0,1-.09.1s-.05.07-.07.4a3.43,3.43,0,0,1-.26,1.23l-.13.32.13.12a2.18,2.18,0,0,1,.5,1.27,2.36,2.36,0,0,1-.4,1.69.75.75,0,0,1-.77.22Zm.2-1.16a1.39,1.39,0,0,0,.35-1c0-.43-.28-1.32-.41-1.32s-.08,0-.11.1-.19.22-.31.36l-.24.24v.26a2.13,2.13,0,0,0,.1.94,1.09,1.09,0,0,0,.27.48.42.42,0,0,0,.38,0ZM12.7,29a1.33,1.33,0,0,0,.29-.38,3.8,3.8,0,0,0-.33-.37,1.81,1.81,0,0,1-.46-.57c-.08-.15-.14-.23-.15-.21a1.59,1.59,0,0,0-.06.3,1.83,1.83,0,0,0,.2,1.15c.13.27.27.29.5.1Zm28.06-1a1.1,1.1,0,0,0,.37-.73A.52.52,0,0,0,41,27l-.4-.63-.26-.44-.1.21a2,2,0,0,0,0,1.74c.15.34.28.39.54.2Zm-14.2-2.54a1.07,1.07,0,0,0,.31-.45,2.14,2.14,0,0,0,.06-.62,1.49,1.49,0,0,0-.08-.66.85.85,0,0,0-.15-.28l-.06-.08-.22.14-.35.17c-.13.05-.16.15-.22.55a1.87,1.87,0,0,0,.21,1.11C26.24,25.65,26.33,25.68,26.56,25.51Zm20.9-7c0-.51,0-.51-.06-.51h-.08a3,3,0,0,0,.13.94,4.34,4.34,0,0,0,0-.51Zm-34.78-4a1,1,0,0,0,.31-.45,1.57,1.57,0,0,0,.06-.61,1.59,1.59,0,0,0-.07-.65,1.05,1.05,0,0,0-.38-.5c-.18-.13-.24-.09-.39.21a2,2,0,0,0-.07,1.8C12.32,14.65,12.43,14.71,12.68,14.52Zm17.47-4.17a1.06,1.06,0,0,0,.43-.91,2,2,0,0,0-.11-.93C30.37,8.26,30.13,8,30,8s-.36.28-.43.51c-.27.74,0,1.89.4,1.92ZM16.2,8.87a3.31,3.31,0,0,1,.43-1.17.28.28,0,0,0,0-.25c-.1-.36-.38-.74-.51-.74s-.35.29-.43.51a2.19,2.19,0,0,0,.17,1.7c.09.15.16.21.26.21s.06-.06.09-.24Zm28.12-.76a1.1,1.1,0,0,0,.43-.9,1.89,1.89,0,0,0-.12-.94c-.1-.25-.34-.53-.45-.53s-.35.28-.43.51A2.17,2.17,0,0,0,43.89,8C44,8.14,44.16,8.19,44.32,8.11ZM36.74,30.46a.76.76,0,0,1-.41-.34A2.37,2.37,0,0,1,36,28.74c0-.74.16-1,.54-1.29a.51.51,0,0,1,.42-.14c.51,0,.8.32,1,1a2.75,2.75,0,0,1,0,1.21,1.35,1.35,0,0,1-.58.82.91.91,0,0,1-.65.09Zm.55-.46a2.14,2.14,0,0,0,.23-1.29,2.39,2.39,0,0,0-.23-.83.58.58,0,0,0-.21-.07c-.21,0-.22,0-.38.31a2.11,2.11,0,0,0,0,1.77c.11.23.22.31.39.29s.14,0,.23-.18Zm-7.58.16-.23-.05c-.27-.06-.3-.08-.3-.21s.41.1.41.1H30V27.39h0a1.47,1.47,0,0,1-.67,0c-.06,0-.07-.19,0-.25a2,2,0,0,1,.91-.18H31v2h-.32c.35.63.43.63.39.83A.24.24,0,0,1,31,30a4.67,4.67,0,0,1-1.23.12ZM53.64,30a1.13,1.13,0,0,1-.65-.79,2.61,2.61,0,0,1,0-1.33,1.33,1.33,0,0,1,.75-1c.33-.1.24-.05.24.14v.17l-.13.07c-.32.13-.43.42-.43,1a2.56,2.56,0,0,0,.27,1.15c.08.16.12.19.19.21s.1,0,.1.19,0,.18-.09.17h-.18Zm-21-2.13a.19.19,0,0,1,0-.26h0c.11,0,.35.35.35.37h0V25h.2a.47.47,0,0,1-.51.35c-.08,0-.09-.18,0-.26a2.84,2.84,0,0,1,.8-.24c.24,0,.33,1.38.51,1.38v1.16h0c-.13.11,0,.17.11.16.3,0,.41.17.26.3s-.1.07-.84.07a3.94,3.94,0,0,1-.84,0ZM22.4,27.82c-.38,0-.39,0-.39-.2s0-.18.43.38H24V25h-1.3l-.29,1h-.27a5.8,5.8,0,0,1,0-1.05,3.81,3.81,0,0,1,.45-.13c.33-.1.45-.12.51-.1a5.14,5.14,0,0,1-.1,1.77V27h.33c.11.38.21.38.32.39s.27.11.21.26,0,.09-.2.11a11.81,11.81,0,0,1-1.19,0ZM50.46,26.7c-.37,0-.38-.05-.38-.21s0-.18.42.51H51V24h-.22l-.28,1h-.27c-.06-1-.06-1.09,0-1.17a2.6,2.6,0,0,1,.47-.16c.32-.08.44-.11.48-.08A9.37,9.37,0,0,0,52,25.33V26h-.61c.11.24.21.24.32.25s.27.11.21.25-.06.1-.2.11a7.75,7.75,0,0,1-1.18,0ZM8.51,26.53c-.37,0-.39,0-.39-.2s0-.18.43-.33H8V23h.83l-.29,1H8.23a.32.32,0,0,1,0-.35,2.47,2.47,0,0,1,.46-.15,1.13,1.13,0,0,1,.51-.1A6.64,6.64,0,0,1,9,25.17V25h.47c.1,1.08.21,1.08.31,1.09s.28.12.22.26,0,.1-.2.11a7.88,7.88,0,0,1-1.19,0Zm21.23-1.17-.24-.06c-.27-.07-.3-.09-.3-.21s.42-.09.42-.09H30V22.64a1.68,1.68,0,0,1-.65,0c-.06,0-.07-.19,0-.25a4.83,4.83,0,0,0,.89-.39H31v2h-.32c.35.85.43.85.39,1a.17.17,0,0,1,0,.1,4,4,0,0,1-1.23.13Zm24-.34a1.15,1.15,0,0,1-.65-.8A2.68,2.68,0,0,1,53,22.9c.15-.55.41-.91.75-1s.24-.06.24.14v.17l-.13.07c-.32.13-.43.42-.43,1a2.52,2.52,0,0,0,.27,1.14c.08.16.12.2.19.22s.1,0,.1.19,0,.17-.09.17h-.18Zm-3.1-3.09c-.5-.18-.74-.8-.7-1.74,0-.74.16-1,.54-1.27a.51.51,0,0,1,.42-.14c.48,0,.81.32,1,1a2.77,2.77,0,0,1-.12,1.56,1.17,1.17,0,0,1-.46.5.87.87,0,0,1-.67,0Zm.55-.57a2.07,2.07,0,0,0,.27-1.31,2.19,2.19,0,0,0-.23-.83L51,19.15c-.2,0-.22,0-.37.32a2,2,0,0,0,0,1.77c.11.22.21.3.38.29s.14,0,.24-.18Zm-42.46.35C8.18,21.53,8,20.9,8,20c0-.74.16-1,.53-1.27a.53.53,0,0,1,.43-.14c.5,0,.8.33,1,1a2.57,2.57,0,0,1-.12,1.55,1.3,1.3,0,0,1-.45.51.89.89,0,0,1-.66.08Zm.54-.5a2.07,2.07,0,0,0,.24-1.29,2.54,2.54,0,0,0-.22-.85A.65.65,0,0,0,9,19c-.2,0-.22,0-.37.31a2.11,2.11,0,0,0,0,1.77c.1.22.21.3.37.29s.15,0,.24-.19ZM53.77,20c-.17,0-.21-.08-.21-.18s0-.17.39-.79h0V17.32l.14.05a.64.64,0,0,1-.47,0,.18.18,0,0,1,.07-.24l.39-.11.87-.09V20h-.58a5.46,5.46,0,0,1-.57,0Zm-3.34-3c-.37,0-.38,0-.38-.2s0-.17.42.19H51V14h-.27l-.29,1h-.26c-.06-.66-.06-.77,0-.85L50.6,14c.32-.09.45-.11.48-.09A9.91,9.91,0,0,0,52,15.71V16h-.63c.1.61.21.63.32.64s.27.11.21.25-.06.1-.2.12a11.61,11.61,0,0,1-1.18,0ZM8.66,16.86c-.51,0-.55-.05-.55-.21s0-.17.43.35H9V13H8.73l-.27,1H8.19s-.06.05,0,0a4.11,4.11,0,0,1,.46-.15c.32-.09.46-.12.51-.09a6.06,6.06,0,0,1,.13,1.75l0,.51h.14s.2.45.31.47.28.12.22.26-.06.09-.21.1a5.68,5.68,0,0,1-1,0Zm38.6-.74a1.09,1.09,0,0,1-.54-.58,2.65,2.65,0,0,1-.15-1.11,1.53,1.53,0,0,1,.63-1.38c.12-.07.15-.08.39-.07s.29,0,.4.11a1.93,1.93,0,0,1,.6,1.52,1.8,1.8,0,0,1-.4,1.24.89.89,0,0,1-.88.22Zm.69-.45a1.3,1.3,0,0,0,.35-1,3.19,3.19,0,0,0-.36-1.28.25.25,0,0,0-.2-.07.2.2,0,0,0-.23.11,1.79,1.79,0,0,0-.31,1.1,1.71,1.71,0,0,0,.35,1.15.33.33,0,0,0,.4,0ZM53.67,15A1.14,1.14,0,0,1,53,14.2a2.72,2.72,0,0,1,0-1.3c.15-.55.41-.92.75-1s.24-.05.24.14v.17l-.13.07c-.32.14-.43.42-.43,1a2.56,2.56,0,0,0,.27,1.15c.08.16.12.2.19.21s.1,0,.1.19,0,.18-.09.17h-.19Zm-3.08-2.75a.75.75,0,0,1-.41-.33,2.3,2.3,0,0,1-.26-1.38c0-.74.16-1,.54-1.29a.6.6,0,0,1,.42-.14c.51,0,.8.32,1,1a2.75,2.75,0,0,1,0,1.21,1.3,1.3,0,0,1-.58.83.84.84,0,0,1-.66.07Zm.54-.59a2,2,0,0,0,.28-1.32,2.63,2.63,0,0,0-.23-.83A.57.57,0,0,0,51,9.43c-.2,0-.21,0-.37.32a2.11,2.11,0,0,0,0,1.77c.11.22.22.3.39.28s.14,0,.23-.18Zm-42.46.41a.76.76,0,0,1-.41-.34A2.29,2.29,0,0,1,8,10.34c0-.74.16-1,.53-1.29a.53.53,0,0,1,.43-.14c.5,0,.8.33,1,1a2.75,2.75,0,0,1,0,1.21,1.29,1.29,0,0,1-.54.88.92.92,0,0,1-.65.07Zm.55-.57a2.08,2.08,0,0,0,.23-1.29,2.53,2.53,0,0,0-.21-.86A.58.58,0,0,0,9,9.27c-.21,0-.22,0-.38.32a2.11,2.11,0,0,0,0,1.77c.11.22.21.3.38.29s.14,0,.24-.19Zm38.09-.24a1,1,0,0,1-.54-.59,2.78,2.78,0,0,1-.16-1.1A1.52,1.52,0,0,1,47.2,8.2c.12-.07.15-.08.39-.07a.52.52,0,0,1,.4.11,1.91,1.91,0,0,1,.6,1.48,1.89,1.89,0,0,1-.4,1.25.91.91,0,0,1-.9.3ZM48,10.8a1.34,1.34,0,0,0,.35-1,3.19,3.19,0,0,0-.36-1.28.25.25,0,0,0-.2-.07.21.21,0,0,0-.23.1,1.84,1.84,0,0,0-.31,1.11,1.62,1.62,0,0,0,.35,1.14.33.33,0,0,0,.4,0Zm5.76-.5a.21.21,0,0,1-.11-.19A2.08,2.08,0,0,0,54,9h0V7.65l.17,0a.79.79,0,0,1-.48,0,.18.18,0,0,1,.08-.24l.39-.11.84-.1V10h-.56a.61.61,0,0,1-.69.28ZM12,10c-.24.15-.34.09-.34,0s.38-.27.38-1H12V7.49l.23.08a.66.66,0,0,1-.48,0c0-.05,0-.21.22-.29s.53-.22,1-.42h0V9h.12c.11.77.23.81.35.84a.21.21,0,0,1,0,.26,1.21,1.21,0,0,1-.46.08A1.16,1.16,0,0,1,12,10ZM32.62,8c-.07.5-.07.38,0,.31h0c.11,0,.35.29.35.69h0V5.72h0c.13.19-.07.3-.28.27s-.1-.16,0-.26a3.11,3.11,0,0,1,.79-.23c.24,0,.3,1.38.49,1.38V8h.1c.3.2.41.36.26.51s-.1.07-.84.07c-.28,0-.84-.58-.84-.58Zm17.84-.65c-.37,0-.38,0-.38-.21s0-.18.42.86H51V4h-.22l-.28,1h-.27c-.06-.36-.06-.47,0-.54a2.6,2.6,0,0,1,.47-.16c.32-.09.44-.11.48-.09A9.42,9.42,0,0,0,52,6V7h-.59a.31.31,0,0,1,.31-.11c.23.05.28.11.22.26s-.07.1-.2.12a11.81,11.81,0,0,1-1.19,0ZM8.51,7.19c-.37,0-.39-.05-.39-.21s0-.18.43,0H8V4h.83l-.3,1H8.21c0-.43-.06-.58,0-.65a4.34,4.34,0,0,1,.47-.16,1.21,1.21,0,0,1,.51-.09A5.15,5.15,0,0,1,9,5.87V6h.46c.09.79.21.77.32.79s.28.12.22.26-.06.09-.21.11a7.75,7.75,0,0,1-1.18,0Zm17.35-.55c-.24,0-.34-.1-.35-.2s.39.56.39.56H26V3.94l.1.05a.74.74,0,0,1-.51,0s0-.21.22-.3A1,1,0,0,0,26.5,3H27V6h0a.43.43,0,0,0,.34.27.21.21,0,0,1,0,.26,1.44,1.44,0,0,1-.46.08,3.7,3.7,0,0,1-.94,0Zm20.93-.33a.18.18,0,0,1,0-.26h0c.11,0,.35,1,.35,1H47V3h.4c-.08.65-.29.77-.51.74s-.1-.17,0-.26a2.77,2.77,0,0,1,.79-.24c.24,0,.32,1.38.32,1.38V6h0a.4.4,0,0,1,.29-.06c.3,0,.42.16.27.31s-.11.06-.84.06a6,6,0,0,1-.85,0Zm-10.2-.13c-.37,0-.39,0-.39-.19s0-.18.42,0H37V3h-.13l-.24,1h-.27a4.52,4.52,0,0,1,0-.66,4.42,4.42,0,0,1,.48-.15c.32-.09.44-.11.5-.09.22.69-.08,1.43-1.34,1.78V6h1.52c.09-.23.2-.2.3-.2s.28.12.22.26-.06.09-.2.11a11.61,11.61,0,0,1-1.18,0ZM16.88,33.56a3.44,3.44,0,0,0,.17-.72,1.76,1.76,0,0,0-.36-1.31c-.2-.21-.26-.21-.45,0a2.05,2.05,0,0,0-.13,2s.07.05.37-.51H17v.57ZM26.24,33h-.12c-.12,0-.2,0,0,.06s.15,0,.15,0ZM30,33a1.5,1.5,0,0,0-.15-.51.43.43,0,0,0-.8,0,3,3,0,0,0-.15.57h.55A2.53,2.53,0,0,0,30,33ZM30,5.53c.23-.11.38-.44.42-.91a2,2,0,0,0-.11-.93c-.1-.25-.34-.53-.45-.53s-.36.29-.43.5a2.25,2.25,0,0,0,.13,1.69c.14.2.26.24.44.15ZM16.29,4c.27.08.4-.2.66-.75V3H16v.15c-.35.38-.2.73,0,1.07.08.08.14.08.31-.2ZM44,3.38a.65.65,0,0,0,.32-.29l0-.09h-.88l.07.13c.14.27.25.34.44.26Z"/></g></g><text class="cls-1" transform="translate(0 330.03)">Hacktoberfest</text></g></g></svg>