<svg xmlns="http://www.w3.org/2000/svg" viewBox="0 0 1719.4 331.3"><title>Asset 5</title><g id="Layer_2" data-name="Layer 2"><g id="Layer_2-2" data-name="Layer 2"><g id="Layer_2-2-2" data-name="Layer 2-2"><g id="layer1"><path id="path5334" d="M291.76,53.63a23.31,23.31,0,0,1-10-3.94,34.2,34.2,0,0,1-6.88-6.82,28.3,28.3,0,0,1-5.24-18.7A26.46,26.46,0,0,1,277.38,8,25,25,0,0,1,284,3.13a14.23,14.23,0,0,1,5.65-1.75c1.22-.18,2.66-.44,3.19-.59A10.61,10.61,0,0,1,297.3.57c11.25,1.08,20.32,7.7,23.88,17.36a26.59,26.59,0,0,1-.05,17.76c-2.73,8.19-8,13.33-16.38,16.18a30.91,30.91,0,0,1-13,1.77Zm7.78-10.31a16.42,16.42,0,0,0,7.71-4.25,15.16,15.16,0,0,0,3.44-4.8,17.79,17.79,0,0,0,1.06-12.33,14.7,14.7,0,0,0-3.83-6.66,16.46,16.46,0,0,0-11-4.84,10.25,10.25,0,0,0-4,.3,22,22,0,0,0-3,.81,17.41,17.41,0,0,0-4.61,3.32,15.86,15.86,0,0,0-4.61,11.05,16.79,16.79,0,0,0,.87,6.78c1.89,5.69,6,9.7,11.24,10.89a18.41,18.41,0,0,0,6.66-.25Zm-60.44,10c-4.75-.74-7.75-2-12.69-5.46-2.06-1.48-2.7-2-2.7-2.22s1-1.35,3.4-3.63l3.4-3.29.91.9c.83.82,1.1,1,3.17,1.72,8.63,3.15,14.15,2.91,16.48-.74a5.56,5.56,0,0,0,.9-3.76c-.23-2.7-1.92-4.39-5.18-5.18-.68-.17-2.58-.51-4.2-.74-5.4-.79-10.16-2.53-12.77-4.62C226.53,23.7,224.76,17.52,226,13a15.88,15.88,0,0,1,6.49-8.82c2-1.43,3.35-2,6.88-2.92L242.59.4l2.58.09c5.32.22,9.47,1.2,12.72,3a17,17,0,0,1,4,3.21l.62.72-3.34,3.39c-1.83,1.86-3.4,3.42-3.47,3.45a3.47,3.47,0,0,1-1-.81A5.23,5.23,0,0,0,252.22,12a22.36,22.36,0,0,0-9.51-1.43,7.63,7.63,0,0,0-4.16,2,5,5,0,0,0-1.38,3.54c-.06,1.35,0,1.41.51,2.22,1.09,1.63,2.72,2.28,7.84,3.12,6.85,1.13,11.38,3.21,14.8,6.78a11,11,0,0,1,3.35,8.84,16.12,16.12,0,0,1-4.87,10.8,20.85,20.85,0,0,1-11.54,5.51,34.72,34.72,0,0,1-8.15,0ZM351,53.6a26.33,26.33,0,0,1-20.65-15.4,27.44,27.44,0,0,1,.35-23.2A26.5,26.5,0,0,1,344.31,2.32,54,54,0,0,1,353.92.54a31.5,31.5,0,0,1,12.37,2.53c3.32,1.51,7.4,4.16,7.23,4.64s-6.78,7.4-7,7.4a20.26,20.26,0,0,1-2.64-1.31c-4.2-2.29-5.66-2.71-9.51-2.68a15.51,15.51,0,0,0-6.88,1.36,17,17,0,0,0-7.15,6.19,13.86,13.86,0,0,0-1.92,8.27,18.45,18.45,0,0,0,4.79,11.91c3,3.23,6.57,4.61,11.38,4.4a16.91,16.91,0,0,0,9-2.72c.72-.4,1.46-.77,2.22-1.1l.95-.41,2.88,2.91c2.12,2.14,3,3.15,3.34,3.81a2.52,2.52,0,0,1,.34,1,50.15,50.15,0,0,1-6.17,3.91,26.67,26.67,0,0,1-8.05,2.71A44.4,44.4,0,0,1,351,53.6ZM69.66,53.35l-.9-.06V35.83c.26-9.6,1-26.43,1-26.43V0h2.55L88.65,17c9,9.09,16.43,16.51,16.59,16.51s.23-1,.23-5.85c0-3.22,0-10.66.29-16.54V1h10V54h-3.83L100.06,41.87C89.79,31.36,85.25,26.56,84,25a23.45,23.45,0,0,0-3.65-3.18l-.61-.32V54H75s-4.83-.61-5.27-.64Zm57.1-27.45V0h9.8c5.42.53,19.33,0,19.33,0h9.87V10h-28V21h5.86a70.59,70.59,0,0,0,10.57,1h4.57v9h-21V43h28V53h-39Zm65,27.46-1.43-.06.43-21.46V10.28l-8.84.72h-9.16l.08-5.3c0-2.54.11-4.66.16-4.7s10.36,0,22.93,0l22.83.1V9.88s-4.06.08-9,.12h-9.61l.58,21.85V53h-4s-4.74.43-5,.39ZM1.3,53a2,2,0,0,1-.82-.22c-.47-.26-.59-.74-.37-1.51,0-.15.46-1.37.93-2.7s.94-2.66,1-2.95c.3-1,.51-1.32,1-1.52L3.29,44H29.8c24.36,0,26.52,0,26.72.06.42.11.54.24.82.8a21.34,21.34,0,0,1,.91,2.58A17.38,17.38,0,0,0,59,49.57a10,10,0,0,1,.77,2.4c0,.48-.4.81-1.08,1-.27,0-2.59,0-28,.07H1.3Zm54.27-2a1.69,1.69,0,0,0,.72-.23.8.8,0,0,0,.29-.51c0-.05-.34-1-.74-2.11L55,45.75c-.19-.66-.43-1-.74-1.11a6.11,6.11,0,0,0-1.48-.09c-.4,0-11.21,0-24,.05-22.36,0-23.29,0-23.39.08a2.81,2.81,0,0,0-.56.8,17.57,17.57,0,0,0-.91,2.35c-.2.63-.45,1.35-.54,1.59-.27.74-.29,1-.08,1.25A1.38,1.38,0,0,0,4.2,51H55.58ZM14.76,44a1.78,1.78,0,0,1-.55-.18c-.1-.07-.11-.08-.1-.18a8.46,8.46,0,0,1,1.23-2.48l.09-.11h6.71l.11-.06c.51-.32.63-1.42.51-4.11V36H14.63c-7.54,0-8.18,0-8.51,0a2.82,2.82,0,0,1-1.48-.58,3.57,3.57,0,0,1-.88-2.21c0-.29,0-.82,0-2.13V6.16a17.33,17.33,0,0,1,.13-3,2.21,2.21,0,0,1,.63-1.46,2.86,2.86,0,0,1,1.69-.67c.26,0,4.59,0,23.52-.06H53.22a2.59,2.59,0,0,1,1.06.26,1.79,1.79,0,0,1,.62.47,2.08,2.08,0,0,1,.61,1c.05.19.05,1,.08,14,0,7.59,0,14.12,0,14.51.09,2.62-.26,3.85-1.28,4.45a3.35,3.35,0,0,1-.93.29A20.36,20.36,0,0,1,51,36c-.68,0-14.58,0-14.64,0s-.09.19-.1,2.14a10.7,10.7,0,0,0,.05,2,1.13,1.13,0,0,0,.6.85,26.47,26.47,0,0,0,4.27.05c1.81,0,1.92,0,2.1.14a10.33,10.33,0,0,1,1.09,2.18c.08.26.08.29,0,.36a.51.51,0,0,1-.21.15L44,44H14.76Zm16.09-5.7c4.09,0,4,0,4.26-.17a1,1,0,0,0,.44-1c-.07-.29-.37-.47-.87-1.07H25.51l-.2.73a1.07,1.07,0,0,0-.35.82.49.49,0,0,0,.09.39c.19.21.45.35.74.06h.7c.26.32,2.22.32,4.36.28ZM11.76,32v-.36l.2.05a.65.65,0,0,1-.51,0s0-.2.23-.3a2.11,2.11,0,0,1,.74-.14,7,7,0,0,1,.34.93V32h2.3l0,1A3.2,3.2,0,0,1,15,31.55a1.53,1.53,0,0,1,.36-.81.87.87,0,0,1,.79-.19c.37.1.61.43.75,1a3.26,3.26,0,0,1,0,1.32c0,.07-.06.22-.06.12h4.34a30.28,30.28,0,0,0,4.26,0,.15.15,0,0,1,0-.13c0-.1.36-.25.7-.29s.35,0,.67.24V33h2v-.12a5.12,5.12,0,0,0,.56-.79.63.63,0,0,1,.71-.22c.41.2.73,1.08.73,1.08V32h8.76c.11,1,.22,1,.34,1h-.1V30.71l.24,0a.64.64,0,0,1-.47,0c-.05,0,0-.21.21-.29a1.49,1.49,0,0,0,.74-.46h.28v2h.14a3.58,3.58,0,0,0,.34,1h5.52v-.12l.36-.14a1.46,1.46,0,0,1-.51.06c-.08,0-.1-.19,0-.27a3.11,3.11,0,0,1,.79-.23c.21,0,.36.41.36.41V33h6V31.84l.11.05a.76.76,0,0,1-.47,0,.19.19,0,0,1,.07-.24l.4-.11.89-.09V6h-.68c-.17-.44-.4-.55-.64-.58a.19.19,0,0,1,0-.15c0-.15.39-.12.39-.27h-.07V2h-9l-.06,1.06a1.16,1.16,0,0,1-.43.57,1.17,1.17,0,0,1-.32.09.74.74,0,0,1-.85-.5A1.48,1.48,0,0,1,43,2.93,3.32,3.32,0,0,0,41.68,3h-.74c.12.92.24,1,.35,1a.21.21,0,0,1,0,.26A3.45,3.45,0,0,1,40,4.3c-.36,0-.46-.08-.47-.2s.38-.1.38-.1h.84V3H30.32l.11.06a1.51,1.51,0,0,1,.35.73,2.67,2.67,0,0,1-.1,1.58,1,1,0,0,1-1.1.58c-.42-.12-.68-.62-.73-1.42A2,2,0,0,1,29.27,3l.12,1H16.76V3.26c.16.9-.13,1.33-.7,1.42s-1.3-1.48-1.3-1.48V3h-2V4h.11c.12.9.24.91.35,1a.2.2,0,0,1,0,.25,3.74,3.74,0,0,1-1.29.1c-.35,0-.45-.09-.47-.21s0-.18.39-.09h-.09V3h-6V33h6V32Zm21.31.88a1.08,1.08,0,0,1-.53-.62,2.46,2.46,0,0,1-.15-1.11A1.47,1.47,0,0,1,33,29.77a.55.55,0,0,1,.4-.07.65.65,0,0,1,.41.11,1.89,1.89,0,0,1,.58,1.48,1.78,1.78,0,0,1-.4,1.25.89.89,0,0,1-.9.27Zm.5-.45a1.34,1.34,0,0,0,.36-1,3.06,3.06,0,0,0-.38-1.29.24.24,0,0,0-.21-.07.23.23,0,0,0-.22.1,1.77,1.77,0,0,0-.28,1.09,1.64,1.64,0,0,0,.36,1.15.35.35,0,0,0,.39,0Zm10.36.31a1.11,1.11,0,0,1-.64-.87,3.87,3.87,0,0,1,0-1.27,1.54,1.54,0,0,1,.35-.84.89.89,0,0,1,.8-.19c.36.1.58.4.74.94a2.58,2.58,0,0,1-.09,1.6A.94.94,0,0,1,44,32.7Zm.42-.41a1.09,1.09,0,0,0,.42-.9,1.76,1.76,0,0,0-.11-.94c-.1-.26-.34-.54-.45-.54s-.35.29-.43.51a2.17,2.17,0,0,0,.14,1.71.27.27,0,0,0,.42.13Zm-21.79.43a.76.76,0,0,1-.41-.34A2.29,2.29,0,0,1,21.86,31a1.39,1.39,0,0,1,.5-1.3.49.49,0,0,1,.43-.13c.5,0,.8.32,1,1a2.75,2.75,0,0,1,0,1.21,1.3,1.3,0,0,1-.57.87.91.91,0,0,1-.65,0ZM23.1,32a2.07,2.07,0,0,0,.24-1.29,2.8,2.8,0,0,0-.25-.84.83.83,0,0,0-.21-.06c-.21,0-.22,0-.38.32a2.08,2.08,0,0,0,0,1.76c.11.22.21.31.38.29s.14,0,.24-.18Zm-3.87-.35a1.08,1.08,0,0,1-.54-.59,2.58,2.58,0,0,1-.15-1.1,1.47,1.47,0,0,1,.61-1.37c.11-.08.15-.09.4-.08a.56.56,0,0,1,.41.11,1.92,1.92,0,0,1,.58,1.52,1.75,1.75,0,0,1-.4,1.24.88.88,0,0,1-.92.24Zm.53-.45a1.3,1.3,0,0,0,.35-1,2.86,2.86,0,0,0-.36-1.27.23.23,0,0,0-.21-.07.19.19,0,0,0-.21.11A1.73,1.73,0,0,0,19,30a1.65,1.65,0,0,0,.36,1.15.35.35,0,0,0,.39,0Zm30.86.45a.66.66,0,0,1-.41-.34,2.23,2.23,0,0,1-.27-1.41c0-.74.16-1,.54-1.29a.53.53,0,0,1,.41-.15c.51,0,.8.33,1,1a3,3,0,0,1,0,1.2,1.31,1.31,0,0,1-.59.87.87.87,0,0,1-.65.08Zm.54-.56a2.06,2.06,0,0,0,.26-1.33,2.29,2.29,0,0,0-.23-.84.83.83,0,0,0-.21-.06c-.2,0-.22,0-.37.32a2,2,0,0,0,0,1.77c.11.22.21.3.38.28s.14,0,.24-.18Zm-42.45.4a.7.7,0,0,1-.42-.33A2.32,2.32,0,0,1,8,29.74a1.34,1.34,0,0,1,.53-1.29A.56.56,0,0,1,9,28.32c.5,0,.8.32,1,1a2.75,2.75,0,0,1,0,1.21,1.25,1.25,0,0,1-.6.82.89.89,0,0,1-.66.08Zm.51-.6a2.08,2.08,0,0,0,.23-1.29,2.44,2.44,0,0,0-.23-.87A.47.47,0,0,0,9,28.64c-.2,0-.22,0-.37.31a2.11,2.11,0,0,0,0,1.77c.1.22.21.3.37.29s.15,0,.24-.19Zm16.75,0a1.21,1.21,0,0,1-.51-.84,3.26,3.26,0,0,1,0-1.39,1.1,1.1,0,0,1,.35-.65.72.72,0,0,1,.83-.2,1.57,1.57,0,0,1,.72,1.56,1.61,1.61,0,0,1-.7,1.52A.92.92,0,0,1,26,30.86Zm.57-.45a1.07,1.07,0,0,0,.31-.45,1.84,1.84,0,0,0,.06-.62,1.52,1.52,0,0,0-.06-.64,1.17,1.17,0,0,0-.39-.51c-.18-.11-.24-.08-.39.22A2,2,0,0,0,26,30.22c.15.33.29.38.54.2Zm20.74.95a.89.89,0,0,1-.27-.31,3.18,3.18,0,0,1-.25-1.21V29l-.45.1a3.87,3.87,0,0,1-2.7.24,5.92,5.92,0,0,1-2.18-1.4l-.67-.28v.16s.08.8-.39.84-.74-.28-.87-.9a2.69,2.69,0,0,1-.06-.69,1.77,1.77,0,0,1,.39-1.34l.16-.16-.32-.59c-.18-.33-.4-.74-.51-.89s-.27-.51-.39-.77A6.25,6.25,0,0,0,38.1,22c-.07-.06-.12-.09-.12-.06a2.54,2.54,0,0,1-.66,1l-.56.18V25h.52c.1.2.2.23.31.22s.27.13.22.27l-.05.1q-.66,0-1.32,0c-.4,0-.4,0-.4-.21s.42.62.42.62h.3V24.45a1.69,1.69,0,0,1-.21-.94l-.28.16a2.68,2.68,0,0,1-3.5-.43.19.19,0,0,0-.19-.09c-.19,0-.25,0-.25-.2a.19.19,0,0,1,.05-.14s0-.08-.13-.31a4.64,4.64,0,0,1-.49-1V21h-4v.32c-.1.23-.17.46-.27.68a3.2,3.2,0,0,1-.6.82l-.22.22.09.13A2.12,2.12,0,0,1,27,24.56c-.1.85-.53,1.35-1.09,1.35s-.74-.28-.91-.89a6.61,6.61,0,0,0-.28-.74V24h-.14a4.09,4.09,0,0,1-1.21,0,4.24,4.24,0,0,1-1.53-.8,2.49,2.49,0,0,0-.31-.23,1.26,1.26,0,0,1-.47-.67A.69.69,0,0,0,21,22c-.06-.05-.06,0-.13.19A6.32,6.32,0,0,1,20,23.51,18.62,18.62,0,0,0,19,25.26l-.21.4V26h.89c.1.26.2.26.3.26.3,0,.41.15.26.3l-.64.44h-.21l-.16.27a6.6,6.6,0,0,1-1.77,1.95,3.23,3.23,0,0,1-2,.61,4.36,4.36,0,0,1-1.85-.39,1.19,1.19,0,0,0-.26-.11.31.31,0,0,0-.1.15,1,1,0,0,1-.86.58c-.45,0-.73-.29-.89-.93a3.32,3.32,0,0,1,0-1.47,2.12,2.12,0,0,1,.14-.4.31.31,0,0,0,0-.32,8.15,8.15,0,0,1-.14-1.21,4.9,4.9,0,0,1,.13-1,.58.58,0,0,0,0-.23,2.55,2.55,0,0,1-.21-1.09A1.81,1.81,0,0,1,11.73,22a.6.6,0,0,0,.24-.48,2.44,2.44,0,0,1,.12-.52c0-.14.12-.42.17-.62l.11-.37h-.16s-.39-.14-.56-.23a.21.21,0,0,1,0-.24c.12,0,.36-.53.36-.53h-.25V17H12a.39.39,0,0,1-.48.19c-.05,0,0-.2.23-.3a2.07,2.07,0,0,1,.74-.14,3.62,3.62,0,0,0,.29.88v.88a1.43,1.43,0,0,1-.14-.86,19.06,19.06,0,0,1,.43-2.23,3.11,3.11,0,0,0,.13-.8c0-.25-.06-.59-.06-.44a1.68,1.68,0,0,1-.33.58.81.81,0,0,1-1.14.11l-.08-.07a2,2,0,0,1-.32-1.31,2.29,2.29,0,0,1,.19-1.07,1.3,1.3,0,0,1,.51-.48.84.84,0,0,1,.75.11,1.79,1.79,0,0,1,.51,1c0,.09,0,.05.19-.36a6.67,6.67,0,0,1,2-3.09l.16-.12-.1-.06a2.54,2.54,0,0,1-.31-2.56.76.76,0,0,1,.44-.44.84.84,0,0,1,1.12.37.36.36,0,0,0,0,.09l.12.26s0,.06.09,0A2.35,2.35,0,0,1,18.7,7h1.06V5h-.33s-.33-.35-.51-.37-.09-.17,0-.26a3.13,3.13,0,0,1,.74-.21c.23,0,.22-.1.1,1.38V7h.3a3.49,3.49,0,0,1,1.48,0,3.56,3.56,0,0,1,1,.3l.21.1V6h-.27L22.2,7h-.08s0-1.17,0-1.4l.48-.15a1.17,1.17,0,0,1,.51-.09,5.88,5.88,0,0,1,.09,1.57c0,.87,0,.9.08,1a.19.19,0,0,0,.14.09l.24,0c.19,0,.24.12.19.25S23.68,8,23.68,8h-.29c.07.89.1,1.19.11,1.49,0,.13,0,.16.12.23a2.31,2.31,0,0,1,.55.53l.08-.25h1.51V8.78l.15.05a.74.74,0,0,1-.51,0c0-.05,0-.21.23-.3A1.15,1.15,0,0,0,26.36,8h.4v2h2.35l-.09.21a3,3,0,0,1,0-2.07.79.79,0,0,1,.43-.43,1.11,1.11,0,0,1,1.28.39h0v0a3.87,3.87,0,0,1-.11,2.1l-.1.77H31.7a2.63,2.63,0,0,1,1.19-.62c.1,0,.3-.38.3-.38h2.19l.23.06.15-.23v-.5c.08-.8.22-1.09.59-1.35a1.67,1.67,0,0,0,.28-.25,2.17,2.17,0,0,1,1.1-.67A7.55,7.55,0,0,1,39.43,7h.33V6.49l.29,0c-.21,0-.43,0-.47,0s0-.21.21-.3.53-.11.74-.24h.23V7h.53l.93.12a2.39,2.39,0,0,1,.64.45c.11.12.18.18.18.14a1.75,1.75,0,0,1,0-.46A2.53,2.53,0,0,1,43.2,6a.79.79,0,0,1,.44-.44.89.89,0,0,1,1.17.4h0a2.66,2.66,0,0,1,.25,1.14c0,.92-.35,1.5-1,1.59a.8.8,0,0,1-.56-.13l.24-.06V8.6c-.27.22,0,.68,0,.68v.1l.29.13a4.15,4.15,0,0,1,.53.32,8,8,0,0,1,2,3.35l.17.51v0a4.53,4.53,0,0,0,0,1.47c0,.15.12.65.2,1.13a9.6,9.6,0,0,0,.35,1.59.31.31,0,0,0,.09.18l.23,0h.14a4.74,4.74,0,0,1,0,1.16V21h.13c.09-.47.18-.47.26-.46.28,0,.37.17.24.33s-.09.06-.36.06h-.31c0,.17.23,2,.27,2.2a10.87,10.87,0,0,1,.21,1.62c0,.31.06.65.07.79s0,.18.07.2a.19.19,0,0,1,.08.24.14.14,0,0,1-.08.1c-.05,0-.05.07-.07.4A3.24,3.24,0,0,1,48,27.71l-.12.32.12.12a2.12,2.12,0,0,1,.5,1.27,2.36,2.36,0,0,1-.4,1.69.74.74,0,0,1-.77.22Zm.2-1.16a1.35,1.35,0,0,0,.35-1c0-.43-.28-1.32-.41-1.32s-.08,0-.11.1-.19.22-.31.36l-.24.24v.26a2.13,2.13,0,0,0,.1.94,1,1,0,0,0,.28.48.4.4,0,0,0,.37,0ZM12.7,29a1.33,1.33,0,0,0,.29-.38,3.8,3.8,0,0,0-.33-.37,1.81,1.81,0,0,1-.46-.57c-.08-.15-.14-.23-.15-.21a1.59,1.59,0,0,0-.06.3,1.83,1.83,0,0,0,.2,1.15c.13.27.27.29.5.1Zm28.06-1a1.1,1.1,0,0,0,.37-.73A.52.52,0,0,0,41,27l-.4-.63-.26-.44-.1.21a2,2,0,0,0,0,1.74c.15.34.28.39.54.2Zm-14.2-2.54a1.07,1.07,0,0,0,.31-.45,2.14,2.14,0,0,0,.06-.62,1.49,1.49,0,0,0-.08-.66.85.85,0,0,0-.15-.28l-.06-.08-.22.14-.35.17c-.13.05-.16.15-.22.55a1.87,1.87,0,0,0,.21,1.11C26.24,25.65,26.33,25.68,26.56,25.51Zm20.9-7c0-.51,0-.51-.06-.51h-.08a3,3,0,0,0,.13.94,4.34,4.34,0,0,0,0-.51Zm-34.78-4a1,1,0,0,0,.31-.45,1.57,1.57,0,0,0,.06-.61,1.59,1.59,0,0,0-.07-.65,1.05,1.05,0,0,0-.38-.5c-.18-.13-.24-.09-.39.21a2,2,0,0,0-.07,1.8C12.32,14.65,12.43,14.71,12.68,14.52Zm17.47-4.17a1.06,1.06,0,0,0,.43-.91,2,2,0,0,0-.11-.93C30.37,8.26,30.13,8,30,8s-.36.28-.43.51c-.27.74,0,1.89.4,1.92ZM16.2,8.87a3.31,3.31,0,0,1,.43-1.17.28.28,0,0,0,0-.25c-.1-.36-.38-.74-.51-.74s-.35.29-.43.51a2.19,2.19,0,0,0,.17,1.7c.09.15.16.21.26.21s.06-.06.09-.24Zm28.12-.76a1.1,1.1,0,0,0,.43-.9,1.89,1.89,0,0,0-.12-.94c-.1-.25-.34-.53-.45-.53s-.35.28-.43.51A2.17,2.17,0,0,0,43.89,8C44,8.14,44.16,8.19,44.32,8.11ZM36.74,30.46a.76.76,0,0,1-.41-.34A2.37,2.37,0,0,1,36,28.74c0-.74.16-1,.54-1.29a.51.51,0,0,1,.42-.14c.51,0,.8.32,1,1a2.75,2.75,0,0,1,0,1.21,1.35,1.35,0,0,1-.58.82.91.91,0,0,1-.65.09Zm.55-.46a2.14,2.14,0,0,0,.23-1.29,2.39,2.39,0,0,0-.23-.83.58.58,0,0,0-.21-.07c-.21,0-.22,0-.38.31a2.11,2.11,0,0,0,0,1.77c.11.23.22.31.39.29s.14,0,.23-.18Zm-7.77.16-.23-.05C29,30.05,29,30,29,29.9s.41.1.41.1h.36V27.39h0a1.47,1.47,0,0,1-.67,0c-.06,0-.07-.19,0-.25A2,2,0,0,1,30,27h.76v2h-.32c.35.63.43.63.39.83a.24.24,0,0,1,0,.12,4.63,4.63,0,0,1-1.23.12ZM53.45,30a1.13,1.13,0,0,1-.65-.79,2.61,2.61,0,0,1,0-1.33,1.32,1.32,0,0,1,.74-1c.33-.1.24-.05.24.14v.17l-.13.07c-.31.13-.43.42-.42,1a2.42,2.42,0,0,0,.26,1.15c.08.16.12.19.2.21s.09,0,.09.19,0,.18-.09.17h-.18ZM32.4,27.89a.19.19,0,0,1,0-.26h0c.12,0,.35.35.35.37h0V25H33a.45.45,0,0,1-.5.35c-.09,0-.1-.18,0-.26a2.68,2.68,0,0,1,.79-.24c.24,0,.33,1.38.51,1.38v1.16h0c-.13.11,0,.17.11.16.3,0,.41.17.26.3s-.1.07-.84.07a3.94,3.94,0,0,1-.84,0Zm-10.19-.07c-.37,0-.39,0-.39-.2s0-.18.43.38h1.51V25h-1.3l-.29,1h-.26a5.8,5.8,0,0,1,0-1.05,3,3,0,0,1,.45-.13c.32-.1.45-.12.5-.1a5.14,5.14,0,0,1-.1,1.77V27h.33c.11.38.22.38.32.39s.28.11.22.26-.06.09-.21.11a11.61,11.61,0,0,1-1.18,0ZM50.27,26.7c-.37,0-.38-.05-.38-.21s0-.18.42.51h.45V24h-.21l-.29,1H50c-.06-1-.06-1.09,0-1.17a2.6,2.6,0,0,1,.47-.16c.32-.08.44-.11.48-.08a9.37,9.37,0,0,0,.82,1.74V26h-.6c.1.24.21.24.31.25s.27.11.21.25-.06.1-.19.11a7.88,7.88,0,0,1-1.19,0ZM8.32,26.53c-.37,0-.38,0-.38-.2s0-.18.43-.33H7.76V23h.83L8.3,24H8a.36.36,0,0,1,0-.35,2.47,2.47,0,0,1,.46-.15A1.13,1.13,0,0,1,9,23.4a6.64,6.64,0,0,1-.25,1.77V25h.47c.11,1.08.21,1.08.31,1.09s.29.12.23.26-.06.1-.21.11a7.75,7.75,0,0,1-1.18,0Zm21.23-1.17-.23-.06c-.28-.07-.31-.09-.31-.21s.42-.09.42-.09h.33V22.64a1.68,1.68,0,0,1-.65,0c-.06,0-.07-.19,0-.25A4.83,4.83,0,0,0,30,22h.76v2h-.32c.35.85.43.85.39,1a.17.17,0,0,1,0,.1,3.94,3.94,0,0,1-1.23.13Zm24-.34a1.15,1.15,0,0,1-.65-.8,2.57,2.57,0,0,1-.08-1.32,1.3,1.3,0,0,1,.74-1c.33-.1.24-.06.24.14v.17l-.13.07c-.31.13-.43.42-.42,1a2.38,2.38,0,0,0,.26,1.14c.08.16.12.2.2.22s.09,0,.09.19,0,.17-.09.17h-.18ZM50.6,21.93c-.5-.18-.74-.8-.7-1.74,0-.74.16-1,.54-1.27a.51.51,0,0,1,.42-.14c.48,0,.81.32,1,1a2.77,2.77,0,0,1-.12,1.56,1.17,1.17,0,0,1-.46.5.87.87,0,0,1-.67,0Zm.55-.57a2.07,2.07,0,0,0,.27-1.31,2.19,2.19,0,0,0-.23-.83L51,19.15c-.2,0-.22,0-.37.32a2,2,0,0,0,0,1.77c.11.22.21.3.38.29s.14,0,.24-.18Zm-42.46.35C8.18,21.53,8,20.9,8,20c0-.74.16-1,.53-1.27a.53.53,0,0,1,.43-.14c.5,0,.8.33,1,1a2.57,2.57,0,0,1-.12,1.55,1.3,1.3,0,0,1-.45.51.89.89,0,0,1-.66.08Zm.54-.5a2.07,2.07,0,0,0,.24-1.29,2.54,2.54,0,0,0-.22-.85A.65.65,0,0,0,9,19c-.2,0-.22,0-.37.31a2.11,2.11,0,0,0,0,1.77c.1.22.21.3.37.29s.15,0,.24-.19ZM53.58,20c-.16,0-.21-.08-.21-.18s.06-.17.39-.79h0V17.32l.14.05a.64.64,0,0,1-.47,0,.19.19,0,0,1,.07-.24l.4-.11.86-.09V20h-.58a5.46,5.46,0,0,1-.57,0Zm-3.34-3c-.37,0-.38,0-.38-.2s0-.17.42.19h.48V14h-.27l-.28,1h-.27c-.06-.66-.06-.77,0-.85l.47-.16c.32-.09.45-.11.48-.09a10.64,10.64,0,0,0,.87,1.81V16h-.62c.09.61.2.63.31.64s.27.11.21.25-.06.1-.19.12a11.81,11.81,0,0,1-1.19,0ZM8.47,16.86c-.5,0-.54-.05-.54-.21s0-.17.43.35h.4V13H8.54l-.27,1H8.19s-.06.05,0,0a4.11,4.11,0,0,1,.46-.15c.32-.09.46-.12.51-.09a6.06,6.06,0,0,1,.13,1.75l0,.51H9.19s.21.45.31.47.28.12.22.26-.06.09-.21.1a5.68,5.68,0,0,1-1,0Zm38.79-.74a1.09,1.09,0,0,1-.54-.58,2.65,2.65,0,0,1-.15-1.11,1.53,1.53,0,0,1,.63-1.38c.12-.07.15-.08.39-.07s.29,0,.4.11a1.93,1.93,0,0,1,.6,1.52,1.8,1.8,0,0,1-.4,1.24.89.89,0,0,1-.88.22Zm.5-.45a1.26,1.26,0,0,0,.35-1,3.35,3.35,0,0,0-.35-1.28.27.27,0,0,0-.21-.07.19.19,0,0,0-.22.11,1.73,1.73,0,0,0-.32,1.1,1.71,1.71,0,0,0,.35,1.15.33.33,0,0,0,.4,0ZM53.48,15a1.13,1.13,0,0,1-.65-.79,2.49,2.49,0,0,1,0-1.3,1.28,1.28,0,0,1,.74-1c.33-.09.24-.05.24.14v.17l-.13.07c-.31.14-.43.42-.42,1a2.42,2.42,0,0,0,.26,1.15c.08.16.12.2.2.21s.09,0,.09.19,0,.18-.09.17h-.19Zm-2.89-2.75a.75.75,0,0,1-.41-.33,2.3,2.3,0,0,1-.26-1.38c0-.74.16-1,.54-1.29a.6.6,0,0,1,.42-.14c.51,0,.8.32,1,1a2.75,2.75,0,0,1,0,1.21,1.3,1.3,0,0,1-.58.83.84.84,0,0,1-.66.07Zm.54-.59a2,2,0,0,0,.28-1.32,2.63,2.63,0,0,0-.23-.83A.57.57,0,0,0,51,9.43c-.2,0-.21,0-.37.32a2.11,2.11,0,0,0,0,1.77c.11.22.22.3.39.28s.14,0,.23-.18Zm-42.46.41a.76.76,0,0,1-.41-.34A2.29,2.29,0,0,1,8,10.34c0-.74.16-1,.53-1.29a.53.53,0,0,1,.43-.14c.5,0,.8.33,1,1a2.75,2.75,0,0,1,0,1.21,1.29,1.29,0,0,1-.54.88.92.92,0,0,1-.65.07Zm.55-.57a2.08,2.08,0,0,0,.23-1.29,2.53,2.53,0,0,0-.21-.86A.58.58,0,0,0,9,9.27c-.21,0-.22,0-.38.32a2.11,2.11,0,0,0,0,1.77c.11.22.21.3.38.29s.14,0,.24-.19Zm38.09-.24a1,1,0,0,1-.54-.59,2.78,2.78,0,0,1-.16-1.1A1.52,1.52,0,0,1,47.2,8.2c.12-.07.15-.08.39-.07a.52.52,0,0,1,.4.11,1.91,1.91,0,0,1,.6,1.48,1.89,1.89,0,0,1-.4,1.25.91.91,0,0,1-.9.3Zm.45-.45a1.31,1.31,0,0,0,.35-1,3.35,3.35,0,0,0-.35-1.28.28.28,0,0,0-.21-.07.2.2,0,0,0-.22.1A1.78,1.78,0,0,0,47,9.63a1.62,1.62,0,0,0,.35,1.14.33.33,0,0,0,.4,0Zm5.76-.5a.19.19,0,0,1-.1-.19A2.11,2.11,0,0,0,53.81,9h-.05V7.65l.17,0a.76.76,0,0,1-.47,0,.18.18,0,0,1,.07-.24l.4-.11.83-.1V10H54.2a.6.6,0,0,1-.69.28ZM11.82,10c-.24.15-.34.09-.34,0s.38-.27.38-1h-.1V7.49l.23.08a.66.66,0,0,1-.48,0c0-.05,0-.21.23-.29s.52-.22,1-.42h0V9h.12c.11.77.23.81.35.84a.21.21,0,0,1,0,.26,1.17,1.17,0,0,1-.46.08,1.16,1.16,0,0,1-.94-.18ZM32.43,8c-.07.5-.07.38,0,.31h0c.11,0,.35.29.35.69h0V5.72h0c.13.19-.07.3-.28.27s-.1-.16,0-.26a3.11,3.11,0,0,1,.79-.23c.25,0,.3,1.38.49,1.38V8h.11c.29.2.4.36.25.51s-.1.07-.84.07C33,8.6,32.45,8,32.45,8Zm17.84-.65c-.37,0-.38,0-.38-.21s0-.18.42.86h.45V4h-.21l-.29,1H50c-.06-.36-.06-.47,0-.54a2.6,2.6,0,0,1,.47-.16c.32-.09.44-.11.48-.09A10.13,10.13,0,0,0,51.76,6V7h-.59c.1-.13.21-.11.32-.11s.27.11.21.26-.06.1-.2.12a11.81,11.81,0,0,1-1.19,0ZM8.32,7.19c-.37,0-.38-.05-.38-.21s0-.18.43,0H7.76V4h.83l-.3,1H8c0-.43-.06-.58,0-.65a3.57,3.57,0,0,1,.46-.16A1.22,1.22,0,0,1,9,4.1a4.91,4.91,0,0,1-.24,1.77V6h.46c.1.79.21.77.32.79s.28.12.22.26-.06.09-.21.11a7.75,7.75,0,0,1-1.18,0Zm17.35-.55c-.24,0-.34-.1-.35-.2s.39.56.39.56h.05V3.94l.1.05a.74.74,0,0,1-.51,0s0-.21.23-.3A1,1,0,0,0,26.31,3h.45V6h0a.45.45,0,0,0,.34.27.21.21,0,0,1,0,.26,1.39,1.39,0,0,1-.46.08,3.7,3.7,0,0,1-.94,0ZM46.6,6.31a.18.18,0,0,1,0-.26h0C46.71,6,47,7,47,7h-.19V3h.4c-.08.65-.29.77-.51.74s-.1-.17,0-.26a2.77,2.77,0,0,1,.79-.24c.24,0,.32,1.38.32,1.38V6h0a.36.36,0,0,1,.28-.06c.31,0,.42.16.27.31s-.1.06-.84.06a6,6,0,0,1-.85,0ZM36.4,6.18C36,6.18,36,6.15,36,6s0-.18.42,0h.33V3h-.12l-.25,1h-.27s0-.43,0-.66a4.42,4.42,0,0,1,.48-.15,1.19,1.19,0,0,1,.51-.09c.21.69-.09,1.43-1.35,1.78V6h1.52c.09-.23.2-.2.31-.2s.27.12.21.26-.06.09-.2.11a11.61,11.61,0,0,1-1.18,0ZM16.69,33.56a2.91,2.91,0,0,0,.17-.72,1.76,1.76,0,0,0-.36-1.31c-.19-.21-.25-.21-.45,0a2.05,2.05,0,0,0-.13,2s.07.05.37-.51h.47v.57ZM26.24,33h-.12c-.12,0-.2,0,0,.06s.15,0,.15,0Zm3.52,0a1.5,1.5,0,0,0-.15-.51.43.43,0,0,0-.8,0,3,3,0,0,0-.15.57h.56a2.44,2.44,0,0,0,.54,0Zm0-27.47c.23-.11.38-.44.42-.91a2,2,0,0,0-.11-.93c-.1-.25-.34-.53-.45-.53s-.35.29-.43.5a2.25,2.25,0,0,0,.13,1.69c.14.2.26.24.44.15ZM16.1,4c.28.08.4-.2.66-.75V3h-1v.15c-.34.38-.19.73,0,1.07.08.08.14.08.3-.2Zm27.66-.63a.65.65,0,0,0,.32-.29L44.13,3h-.87l.06.13c.14.27.25.34.44.26Z"/></g></g><path d="M15.76,330V140h38v76h88V140h38V330l-38,.13V252h-88v78Z"/><path d="M221,218.78q23.75-15.17,55-15.17,22.5,0,35.63,12.64t13.12,37.92V330h-35V319.89Q274.51,330,262.26,330q-25,0-37.5-10.74t-12.5-29.7A47.48,47.48,0,0,1,224.07,258q11.82-13.9,38.19-13.9,12.12,0,27.5,7.58v-3.79q-.25-13.9-20-15.17-22.5,0-35,7.59Zm68.75,73.34V277.83q-5.06-9.72-24-9.73-22.75,2.53-24,17.7,1.28,15,24,16.3Q284.71,302.1,289.76,292.12Z"/><path d="M368.72,314.23q-19-15.8-19-41.07V260.52q0-25.27,19-41.08t44.36-15.79q30.33,0,50.43,21.48l-25.28,19Q426.86,232.72,413,232.71q-12.63,0-22.11,10.11a34,34,0,0,0-9.48,24,35.25,35.25,0,0,0,8.85,24Q399,301,413,301t25.28-11.37l25.28,19Q443.29,330,413,330,387.68,330,368.72,314.23Z"/><path d="M492.76,140h38V248l36.16-44h42.47l-47.13,56.57L622,330H573.07l-42.31-50.54V330h-38Z"/><path d="M698.16,330.7q-21.78,0-34.59-12t-12.81-31V233h-18V204h18V169.75l36-3.79v38h19v29h-19v49.67q0,10.11,4.29,14.22A15.37,15.37,0,0,0,702.13,301a62.68,62.68,0,0,0,9.61-1.65l7.56,25.41A38.17,38.17,0,0,1,698.16,330.7Z"/><path d="M751.5,312.78Q733,294.27,733,266.84t18.46-46q18.45-18.45,46-18.45t46,18.45q18.46,18.46,18.46,46t-18.46,46q-18.45,18.46-46,18.46T751.5,312.78Zm45.87-12.07q14.42,0,23.39-9.67t9-24.08q0-14.4-9-24.14t-23.51-9.73q-14.28,0-23.26,9.73T765,267q0,14.42,9,24.08T797.37,300.71Z"/><path d="M919.76,140.87v73.26q8.75-9,27.5-10.21,28.75,0,45.63,18.91a66.15,66.15,0,0,1,0,88.26Q976,330,947.26,330q-13.5,0-27.5-10.09V330h-35V141ZM946.3,301q32.87-1.26,34.13-36.65-3.79-29.07-34.13-31.47-24,3.67-26.54,24.9v20.47Q922.3,297.17,946.3,301Z"/><path d="M1029.9,266.36q0-27.8,17.7-45.5t45.5-17.69q27.8,0,44.23,17.69t16.43,45.5V279h-87.21a22.36,22.36,0,0,0,8.85,15.8,28.7,28.7,0,0,0,17.7,5.69,52.31,52.31,0,0,0,31.59-10.12l20.22,20.23q-13.9,19-51.81,18.95-27.81,0-45.5-17.69T1029.9,266.36Zm80.79-28.16a30.36,30.36,0,0,0-35.39,0q-7.59,5.69-7.59,15.8h50.56Q1118.27,243.89,1110.69,238.2Z"/><path d="M1213.76,217.52a43.56,43.56,0,0,1,32.63-13.91,64.61,64.61,0,0,1,11.62,1l-5.5,34.89q-6.12-5.56-17.5-5.94-12.75.88-21.25,18.7V330h-35V207.28l35-3.79Z"/><path d="M1287.76,330V229h-19V200h19V183.06q0-18.94,12.81-31t34.59-12q23.07,0,35.87,12.64l-19.08,21q-3.6-3.92-12.82-3.92a15.37,15.37,0,0,0-11.08,4.11q-4.29,4.11-4.29,14.22V200h19v29h-19V330Z"/><path d="M1372.9,266.36q0-27.8,17.7-45.5t45.5-17.69q27.8,0,44.23,17.69t16.43,45.5V279h-87.21a22.36,22.36,0,0,0,8.85,15.8,28.7,28.7,0,0,0,17.7,5.69,52.31,52.31,0,0,0,31.59-10.12l20.22,20.23q-13.9,19-51.81,18.95-27.81,0-45.5-17.69T1372.9,266.36Zm80.93-28.16a30.36,30.36,0,0,0-35.39,0q-7.59,5.69-7.59,15.8h50.56Q1461.41,243.89,1453.83,238.2Z"/><path d="M1596,207.18A61.18,61.18,0,0,1,1614.46,220l-19.71,22.24q-8.6-10.23-21.49-10.23t-17.06,4.74q-4.31,4.73,0,8.59t17.06,6.38q18.84,1.77,30.84,10.74t12,31.22q0,18-14.16,27.81t-33,9.86q-17.94,0-29.89-5.12a64.9,64.9,0,0,1-20.53-13.72l19.59-22.11q8.59,10.23,26.66,11.88,14.54,0,18.77-4.74t1.27-9.48q-3-4.74-20-6.38a69.51,69.51,0,0,1-28.24-9.48q-12.84-7.71-12.83-29.07,0-19.59,14.6-29.89t30-10.3Q1586.15,202.89,1596,207.18Z"/><path d="M1698.85,330.7q-21.18,0-33.63-12t-12.46-31V233h-19V204h18V169.75l36-3.79v38h19v29h-19v49.67q0,10.11,4.17,14.22a14.71,14.71,0,0,0,10.78,4.11,59.41,59.41,0,0,0,9.34-1.65l7.35,25.41A36.37,36.37,0,0,1,1698.85,330.7Z"/></g></g></svg>